# xmcd CD database file
#
# Track frame offsets:
#	150
#	22390
#	51197
#	74529
#	98781
#	121054
#	138745
#	160491
#
# Disc length: 2451 seconds
#
# Revision: 0
# Processed by: cddbd v1.5.2PL0 Copyright (c) Steve Scherf et al.
# Submitted via: CDex 1.70beta2
#
DISCID=77099108
DTITLE=DEVARIEM - PLANET EARTH - GROUND ZERO
DYEAR=2013
DGENRE=Thrash Metal
TTITLE0=PLANET EARTH: GROUND ZERO
TTITLE1=STEAMHAMMERHEAD
TTITLE2=CASKETEER 
TTITLE3=TORTURE TILL IT`S TRUE
TTITLE4=INFYRNO
TTITLE5=POINT OF NO RETURN
TTITLE6=SONS OF DETH
TTITLE7=OUR KILLER REPUTATION
EXTD=YEAR: 2013
EXTT0=
EXTT1=
EXTT2=
EXTT3=
EXTT4=
EXTT5=
EXTT6=
EXTT7=
PLAYORDER=
